<svg width="22" height="23" viewBox="0 0 22 23" fill="none" xmlns="http://www.w3.org/2000/svg">
<path d="M3.73926 14.0679L4.40445 14.0679L3.73926 14.0679ZM6.16314 16.9045L6.07177 17.5634L6.07177 17.5634L6.16314 16.9045ZM15.1976 16.9045L15.289 17.5634L15.289 17.5634L15.1976 16.9045ZM17.2076 12.5616L17.7788 12.2208L17.2076 12.5616ZM4.15275 12.5623L3.58139 12.2217L4.15275 12.5623ZM5.94593 8.03757C5.94593 5.42335 8.06518 3.30411 10.6794 3.30411V1.97372C7.33043 1.97372 4.61555 4.6886 4.61555 8.03757H5.94593ZM5.94593 9.89554V8.03757H4.61555V9.89554H5.94593ZM4.40445 14.0679C4.40445 13.6409 4.5212 13.2433 4.72412 12.9029L3.58139 12.2217C3.25906 12.7624 3.07407 13.3945 3.07407 14.0679L4.40445 14.0679ZM6.2545 16.2456C5.19052 16.0981 4.40445 15.1731 4.40445 14.0679L3.07407 14.0679C3.07407 15.8059 4.3194 17.3204 6.07177 17.5634L6.2545 16.2456ZM10.6804 16.6282C9.35712 16.6282 7.6475 16.4388 6.2545 16.2456L6.07177 17.5634C7.47557 17.758 9.26068 17.9586 10.6804 17.9586V16.6282ZM15.1063 16.2456C13.7133 16.4388 12.0037 16.6282 10.6804 16.6282V17.9586C12.1001 17.9586 13.8852 17.758 15.289 17.5634L15.1063 16.2456ZM16.9563 14.0679C16.9563 15.1731 16.1703 16.0981 15.1063 16.2456L15.289 17.5634C17.0414 17.3204 18.2867 15.8059 18.2867 14.0679H16.9563ZM16.6363 12.9024C16.8394 13.2429 16.9563 13.6407 16.9563 14.0679H18.2867C18.2867 13.3941 18.1015 12.7617 17.7788 12.2208L16.6363 12.9024ZM15.4129 8.03757V9.89309H16.7432V8.03757H15.4129ZM10.6794 3.30411C13.2936 3.30411 15.4129 5.42335 15.4129 8.03757H16.7432C16.7432 4.6886 14.0284 1.97372 10.6794 1.97372V3.30411ZM17.7788 12.2208C17.5047 11.7612 17.2557 11.393 17.0504 10.9819C16.8538 10.5881 16.7432 10.2369 16.7432 9.89309H15.4129C15.4129 10.5256 15.617 11.0894 15.8601 11.5762C16.0945 12.0456 16.4103 12.5235 16.6363 12.9024L17.7788 12.2208ZM4.61555 9.89554C4.61555 10.2391 4.50519 10.5901 4.30887 10.9835C4.10384 11.3944 3.85518 11.7624 3.58139 12.2217L4.72412 12.9029C4.94988 12.5243 5.26521 12.0466 5.49929 11.5775C5.74207 11.091 5.94593 10.5275 5.94593 9.89554H4.61555Z" fill="#2F667F"/>
<path d="M12.6084 19.3428C12.1939 19.9662 11.4851 20.3771 10.6803 20.3771C9.87554 20.3771 9.16673 19.9662 8.75222 19.3428" stroke="#2F667F" stroke-width="1.33038" stroke-linecap="round"/>
</svg>
