<svg width="23" height="23" viewBox="0 0 23 23" fill="none" xmlns="http://www.w3.org/2000/svg">
<path d="M2.84701 18.6287L3.47419 18.8504H3.47419L2.84701 18.6287ZM4.2051 19.9868L4.42672 20.614H4.42672L4.2051 19.9868ZM6.44264 19.1962L6.22101 18.569L6.44264 19.1962ZM7.21011 19.2695L7.53265 18.6878L7.21011 19.2695ZM3.61167 15.5571L3.02008 15.8612L3.61167 15.5571ZM3.30045 11.5074C3.30045 6.97644 6.97352 3.30338 11.5045 3.30338V1.97299C6.23876 1.97299 1.97006 6.24169 1.97006 11.5074H3.30045ZM4.20326 15.2529C3.62636 14.1308 3.30045 12.8581 3.30045 11.5074H1.97006C1.97006 13.0746 2.3487 14.5553 3.02008 15.8612L4.20326 15.2529ZM3.47419 18.8504L4.29762 16.5201L3.04324 16.0768L2.21982 18.4071L3.47419 18.8504ZM3.98348 19.3596C3.66714 19.4714 3.36241 19.1667 3.47419 18.8504L2.21982 18.4071C1.73543 19.7779 3.05591 21.0984 4.42672 20.614L3.98348 19.3596ZM6.22101 18.569L3.98348 19.3596L4.42672 20.614L6.66426 19.8234L6.22101 18.569ZM11.5045 19.7114C10.0623 19.7114 8.70885 19.3399 7.53265 18.6878L6.88756 19.8513C8.2561 20.61 9.83086 21.0418 11.5045 21.0418V19.7114ZM19.7085 11.5074C19.7085 16.0384 16.0354 19.7114 11.5045 19.7114V21.0418C16.7702 21.0418 21.0389 16.7731 21.0389 11.5074H19.7085ZM11.5045 3.30338C16.0354 3.30338 19.7085 6.97644 19.7085 11.5074H21.0389C21.0389 6.24169 16.7702 1.97299 11.5045 1.97299V3.30338ZM6.66426 19.8234C6.72234 19.8028 6.80383 19.8048 6.88756 19.8513L7.53265 18.6878C7.1463 18.4735 6.66972 18.4104 6.22101 18.569L6.66426 19.8234ZM3.02008 15.8612C3.06209 15.9429 3.063 16.0209 3.04324 16.0768L4.29762 16.5201C4.45005 16.0887 4.39756 15.6309 4.20326 15.2529L3.02008 15.8612Z" fill="#2F667F"/>
<circle cx="7.11402" cy="11.5515" r="1.10865" fill="#2F667F"/>
<circle cx="11.5486" cy="11.5515" r="1.10865" fill="#2F667F"/>
<circle cx="15.9832" cy="11.5515" r="1.10865" fill="#2F667F"/>
</svg>
