<svg width="22" height="21" viewBox="0 0 22 21" fill="none" xmlns="http://www.w3.org/2000/svg">
<path d="M2.69092 9.93987C2.69092 8.83988 3.19463 7.80045 4.05799 7.11885L9.00002 3.21725C10.3058 2.18634 12.1485 2.18634 13.4543 3.21724L18.3963 7.11884C19.2597 7.80045 19.7634 8.83988 19.7634 9.93987V15.8358C19.7634 17.8208 18.1542 19.43 16.1692 19.43H14.8214C14.3251 19.43 13.9228 19.0277 13.9228 18.5314V15.8358C13.9228 14.8433 13.1182 14.0387 12.1257 14.0387H10.3286C9.33609 14.0387 8.5315 14.8433 8.5315 15.8358V18.5315C8.5315 19.0277 8.1292 19.43 7.63295 19.43H6.28512C4.3001 19.43 2.69092 17.8208 2.69092 15.8358L2.69092 9.93987Z" stroke="#FEFEFD" stroke-width="1.34783"/>
</svg>
