<svg width="22" height="23" viewBox="0 0 22 23" fill="none" xmlns="http://www.w3.org/2000/svg">
<circle cx="2.66077" cy="2.66077" r="2.66077" transform="matrix(-1 0 0 1 13.835 8.84668)" stroke="#2F667F" stroke-width="1.33038"/>
<path d="M15.1653 5.24352L14.8327 5.81959L15.1653 5.24352ZM15.1653 17.771L14.8327 17.1949L15.1653 17.771ZM7.18304 17.771L7.51563 17.1949H7.51563L7.18304 17.771ZM7.18304 5.24352L7.51563 5.81959L7.18304 5.24352ZM8.44507 3.53848L7.797 3.38853V3.38853L8.44507 3.53848ZM8.9916 2.90873L8.82843 2.26386L8.9916 2.90873ZM2.79829 8.58313L2.17027 8.36388L2.79829 8.58313ZM5.24229 17.4855L5.08958 16.838L5.24229 17.4855ZM4.43618 17.2751L3.93104 17.7079L4.43618 17.2751ZM8.99168 20.1061L9.15485 19.4612L8.99168 20.1061ZM8.44513 19.4763L7.79704 19.6262L8.44513 19.4763ZM13.9033 19.4762L14.5513 19.6261L13.9033 19.4762ZM13.3567 20.1061L13.1935 19.4612L13.3567 20.1061ZM17.9121 17.2751L18.4172 17.7078L17.9121 17.2751ZM17.106 17.4854L16.9533 18.1329L17.106 17.4854ZM19.55 8.58313L20.178 8.36389L19.55 8.58313ZM19.2394 9.45288L19.6624 9.96626L19.2394 9.45288ZM3.10883 13.5619L3.53182 14.0753L3.10883 13.5619ZM17.9119 5.73948L17.4067 6.1723L17.9119 5.73948ZM5.24245 5.52909L5.08978 6.17652L5.24245 5.52909ZM19.2394 13.5619L19.6624 13.0486L19.2394 13.5619ZM19.55 14.4317L20.178 14.6509L19.55 14.4317ZM13.9033 3.5385L13.2552 3.68846L13.9033 3.5385ZM13.3568 2.90876L13.52 2.2639L13.3568 2.90876ZM13.2552 3.68846C13.4555 4.55397 14.0015 5.33968 14.8327 5.81959L15.4979 4.66744C14.9992 4.37947 14.672 3.90985 14.5514 3.38854L13.2552 3.68846ZM14.8327 5.81959C15.5963 6.26045 16.4636 6.36397 17.2585 6.17654L16.9532 4.88166C16.475 4.99441 15.9565 4.93221 15.4979 4.66744L14.8327 5.81959ZM20.178 8.36389C19.7828 7.23188 19.1805 6.19773 18.417 5.30666L17.4067 6.1723C18.0644 6.93978 18.5823 7.82959 18.9219 8.80237L20.178 8.36389ZM18.9347 11.5074C18.9347 10.8871 19.2169 10.3333 19.6624 9.96626L18.8164 8.9395C18.0774 9.54845 17.6043 10.473 17.6043 11.5074H18.9347ZM19.6624 13.0486C19.2169 12.6815 18.9347 12.1277 18.9347 11.5074H17.6043C17.6043 12.5418 18.0774 13.4664 18.8164 14.0753L19.6624 13.0486ZM18.4172 17.7078C19.1806 16.8169 19.7828 15.7828 20.178 14.6509L18.9219 14.2124C18.5824 15.1851 18.0645 16.0748 17.407 16.8423L18.4172 17.7078ZM15.4979 18.3471C15.9566 18.0823 16.4751 18.0201 16.9533 18.1329L17.2587 16.838C16.4637 16.6505 15.5964 16.754 14.8327 17.1949L15.4979 18.3471ZM14.5513 19.6261C14.6719 19.1048 14.9991 18.6351 15.4979 18.3471L14.8327 17.1949C14.0014 17.6749 13.4554 18.4607 13.2552 19.3263L14.5513 19.6261ZM11.1741 21.0418C11.9827 21.0418 12.7688 20.941 13.5199 20.7509L13.1935 19.4612C12.5482 19.6245 11.8718 19.7114 11.1741 19.7114V21.0418ZM8.82851 20.751C9.5796 20.941 10.3656 21.0418 11.1741 21.0418V19.7114C10.4765 19.7114 9.80013 19.6245 9.15485 19.4612L8.82851 20.751ZM6.85044 18.3471C7.34929 18.6351 7.67646 19.1048 7.79704 19.6262L9.09321 19.3264C8.893 18.4607 8.34697 17.6749 7.51563 17.1949L6.85044 18.3471ZM5.395 18.1329C5.87324 18.0201 6.3918 18.0823 6.85044 18.3471L7.51563 17.1949C6.75195 16.754 5.88458 16.6505 5.08958 16.838L5.395 18.1329ZM2.17027 14.6509C2.56542 15.7828 3.16763 16.8169 3.93104 17.7079L4.94132 16.8423C4.28378 16.0748 3.76588 15.1851 3.42632 14.2124L2.17027 14.6509ZM3.41356 11.5074C3.41356 12.1277 3.13135 12.6815 2.68584 13.0486L3.53182 14.0753C4.2709 13.4664 4.74394 12.5418 4.74394 11.5074H3.41356ZM2.68584 9.96625C3.13135 10.3333 3.41356 10.8871 3.41356 11.5074H4.74394C4.74394 10.473 4.2709 9.54844 3.53182 8.9395L2.68584 9.96625ZM3.9313 5.30663C3.16776 6.1977 2.56546 7.23187 2.17027 8.36388L3.42632 8.80237C3.76592 7.82958 4.2839 6.93976 4.94153 6.17228L3.9313 5.30663ZM6.85044 4.66744C6.39183 4.93222 5.87333 4.99442 5.39512 4.88165L5.08978 6.17652C5.88473 6.36398 6.75202 6.26046 7.51563 5.81959L6.85044 4.66744ZM7.797 3.38853C7.67638 3.90984 7.34923 4.37947 6.85044 4.66744L7.51563 5.81959C8.34688 5.33967 8.89287 4.55396 9.09314 3.68843L7.797 3.38853ZM11.1741 1.97299C10.3655 1.97299 9.57954 2.0738 8.82843 2.26386L9.15478 3.55359C9.80008 3.39031 10.4765 3.30338 11.1741 3.30338V1.97299ZM13.52 2.2639C12.7688 2.07381 11.9828 1.97299 11.1741 1.97299V3.30338C11.8718 3.30338 12.5483 3.39032 13.1936 3.55363L13.52 2.2639ZM9.09314 3.68843C9.10699 3.62859 9.13045 3.58638 9.14865 3.56424C9.16428 3.54522 9.16707 3.55048 9.15478 3.55359L8.82843 2.26386C8.21538 2.41898 7.89883 2.94842 7.797 3.38853L9.09314 3.68843ZM3.53182 8.9395C3.47782 8.895 3.44643 8.84687 3.43384 8.81468C3.42325 8.7876 3.43105 8.78881 3.42632 8.80237L2.17027 8.36388C1.93434 9.0397 2.29988 9.64825 2.68584 9.96625L3.53182 8.9395ZM5.08958 16.838C5.02995 16.8521 4.98182 16.8498 4.95391 16.8433C4.92991 16.8377 4.93321 16.8328 4.94132 16.8423L3.93104 17.7079C4.34174 18.1872 4.95547 18.2366 5.395 18.1329L5.08958 16.838ZM9.15485 19.4612C9.16714 19.4643 9.16435 19.4696 9.14872 19.4506C9.13051 19.4284 9.10705 19.3862 9.09321 19.3264L7.79704 19.6262C7.89884 20.0663 8.2154 20.5958 8.82851 20.751L9.15485 19.4612ZM13.2552 19.3263C13.2413 19.3862 13.2179 19.4284 13.1997 19.4506C13.184 19.4696 13.1812 19.4643 13.1935 19.4612L13.5199 20.7509C14.133 20.5958 14.4495 20.0663 14.5513 19.6261L13.2552 19.3263ZM17.407 16.8423C17.4151 16.8328 17.4184 16.8377 17.3944 16.8433C17.3665 16.8498 17.3183 16.8521 17.2587 16.838L16.9533 18.1329C17.3928 18.2365 18.0065 18.1872 18.4172 17.7078L17.407 16.8423ZM18.9219 8.80237C18.9172 8.78881 18.925 8.7876 18.9144 8.81468C18.9018 8.84687 18.8704 8.895 18.8164 8.9395L19.6624 9.96626C20.0484 9.64825 20.4139 9.0397 20.178 8.36389L18.9219 8.80237ZM3.42632 14.2124C3.43105 14.226 3.42325 14.2272 3.43384 14.2001C3.44643 14.1679 3.47782 14.1198 3.53182 14.0753L2.68584 13.0486C2.29988 13.3666 1.93434 13.9751 2.17027 14.6509L3.42632 14.2124ZM17.2585 6.17654C17.3181 6.16248 17.3662 6.1648 17.3941 6.17129C17.4181 6.17688 17.4148 6.18176 17.4067 6.1723L18.417 5.30666C18.0063 4.82741 17.3927 4.77804 16.9532 4.88166L17.2585 6.17654ZM4.94153 6.17228C4.93343 6.18173 4.93013 6.17686 4.95413 6.17127C4.98203 6.16477 5.03016 6.16246 5.08978 6.17652L5.39512 4.88165C4.95562 4.77801 4.34197 4.82736 3.9313 5.30663L4.94153 6.17228ZM18.8164 14.0753C18.8704 14.1198 18.9018 14.1679 18.9144 14.2001C18.925 14.2272 18.9172 14.226 18.9219 14.2124L20.178 14.6509C20.4139 13.9751 20.0484 13.3666 19.6624 13.0486L18.8164 14.0753ZM14.5514 3.38854C14.4495 2.94845 14.133 2.41903 13.52 2.2639L13.1936 3.55363C13.1813 3.55052 13.1841 3.54526 13.1997 3.56427C13.2179 3.58641 13.2414 3.62862 13.2552 3.68846L14.5514 3.38854Z" fill="#2F667F"/>
</svg>
